<?xml version="1.0" encoding="utf-8"?>
<!-- Generator: Adobe Illustrator 28.3.0, SVG Export Plug-In . SVG Version: 6.00 Build 0)  -->
<svg version="1.1" xmlns="http://www.w3.org/2000/svg" xmlns:xlink="http://www.w3.org/1999/xlink" x="0px" y="0px"
	 viewBox="0 0 16 16" style="enable-background:new 0 0 16 16;" xml:space="preserve">
<style type="text/css">
	.st0{display:none;}
	.st1{fill:#FFFFFF;}
	.st2{display:inline;fill:#2B2D30;}
	.st3{display:inline;fill:#E7F7ED;}
	.st4{fill:#274435;}
	.st5{fill:#37A534;}
	.st6{display:inline;fill:#50AF4E;}
	.st7{display:inline;fill:#595959;}
	.st8{fill:#E0E0E0;}
</style>
<g id="Background_Example" class="st0">
	<rect id="Light" class="st1" width="16" height="16"/>
	<rect id="Dark" class="st2" width="16" height="16"/>
</g>
<g id="Outline_00000137811378828807339840000016804809543406298265_">
	<g id="Outline_Fill_Light" class="st0">
		<path class="st3" d="M11.79,14.5H4.21C2.44,14.5,1,13.06,1,11.29V5.71C1,3.94,2.44,2.5,4.21,2.5h7.57C13.56,2.5,15,3.94,15,5.71
			v5.57C15,13.06,13.56,14.5,11.79,14.5z"/>
	</g>
	<g id="Outline_Fill_Dark">
		<path class="st4" d="M11.79,14.5H4.21C2.44,14.5,1,13.06,1,11.29V5.71C1,3.94,2.44,2.5,4.21,2.5h7.57C13.56,2.5,15,3.94,15,5.71
			v5.57C15,13.06,13.56,14.5,11.79,14.5z"/>
	</g>
	<g id="Outline">
		<path class="st5" d="M11.71,3c1.54,0,2.79,1.25,2.79,2.79v5.42c0,1.54-1.25,2.79-2.79,2.79H4.29c-1.54,0-2.79-1.25-2.79-2.79V5.79
			C1.5,4.25,2.75,3,4.29,3H11.71 M11.71,2H4.29C2.2,2,0.5,3.7,0.5,5.79v5.42C0.5,13.3,2.2,15,4.29,15h7.42
			c2.09,0,3.79-1.7,3.79-3.79V5.79C15.5,3.7,13.8,2,11.71,2L11.71,2z"/>
	</g>
</g>
<g id="Body">
	<g class="st0">
		<path class="st6" d="M3.89,4.29v1.15h1.78V4.29c0-0.16,0.04-0.29,0.11-0.37C5.86,3.85,5.96,3.8,6.08,3.8
			c0.12,0,0.22,0.04,0.3,0.12C6.46,4.01,6.5,4.13,6.5,4.29v3.15c0,0.17-0.04,0.29-0.12,0.37C6.3,7.9,6.2,7.94,6.08,7.94
			c-0.12,0-0.22-0.04-0.3-0.12C5.71,7.73,5.67,7.61,5.67,7.44V6.1H3.89v1.34c0,0.17-0.04,0.29-0.12,0.37
			C3.69,7.9,3.59,7.94,3.47,7.94c-0.12,0-0.22-0.04-0.3-0.12C3.1,7.73,3.06,7.61,3.06,7.44V4.29c0-0.16,0.04-0.29,0.11-0.37
			C3.25,3.85,3.35,3.8,3.47,3.8c0.12,0,0.22,0.04,0.3,0.12C3.85,4.01,3.89,4.13,3.89,4.29z"/>
		<path class="st6" d="M8.03,8.03L8.1,7.86L7.17,5.56C7.11,5.42,7.08,5.33,7.08,5.27c0-0.06,0.02-0.12,0.05-0.18
			c0.03-0.05,0.08-0.1,0.14-0.13c0.06-0.03,0.12-0.05,0.18-0.05c0.11,0,0.19,0.03,0.25,0.1c0.06,0.07,0.1,0.17,0.15,0.29l0.64,1.83
			l0.61-1.7C9.14,5.3,9.19,5.19,9.22,5.11C9.26,5.03,9.3,4.98,9.35,4.95c0.04-0.03,0.11-0.04,0.19-0.04c0.06,0,0.11,0.02,0.17,0.04
			s0.09,0.07,0.12,0.12c0.03,0.05,0.04,0.1,0.04,0.16C9.86,5.27,9.84,5.32,9.83,5.39C9.81,5.45,9.79,5.51,9.77,5.58L8.78,8.12
			c-0.08,0.22-0.17,0.4-0.25,0.53C8.45,8.77,8.34,8.87,8.2,8.94s-0.32,0.1-0.54,0.1c-0.22,0-0.39-0.02-0.5-0.07
			C7.05,8.92,6.99,8.84,6.99,8.71c0-0.09,0.03-0.15,0.08-0.2C7.12,8.47,7.2,8.44,7.31,8.44c0.04,0,0.08,0.01,0.12,0.02
			c0.05,0.01,0.09,0.02,0.12,0.02c0.09,0,0.16-0.01,0.21-0.04c0.05-0.03,0.09-0.07,0.13-0.13C7.93,8.24,7.98,8.15,8.03,8.03z"/>
	</g>
	<g id="Hi__x28_light_x29_" class="st0">
		<path class="st7" d="M9.35,6.5v4.42c0,0.2-0.13,0.34-0.35,0.34c-0.21,0-0.35-0.14-0.35-0.34V8.96H5.37v1.97
			c0,0.2-0.14,0.34-0.35,0.34c-0.22,0-0.35-0.14-0.35-0.34V6.5c0-0.2,0.13-0.35,0.35-0.35c0.21,0,0.35,0.14,0.35,0.35v1.84h3.28V6.5
			c0-0.2,0.14-0.35,0.35-0.35C9.22,6.16,9.35,6.3,9.35,6.5z"/>
		<path class="st7" d="M10.57,6.16c0-0.24,0.18-0.4,0.44-0.4c0.27,0,0.45,0.16,0.45,0.4s-0.18,0.4-0.45,0.4
			C10.75,6.56,10.57,6.39,10.57,6.16z M11.36,7.69v3.25c0,0.2-0.14,0.34-0.35,0.34c-0.21,0-0.34-0.13-0.34-0.34V7.69
			c0-0.2,0.14-0.34,0.34-0.34C11.22,7.35,11.36,7.48,11.36,7.69z"/>
	</g>
	<g id="Hi__x28_dark_x29_">
		<path class="st8" d="M9.35,6.5v4.42c0,0.2-0.13,0.34-0.35,0.34c-0.21,0-0.35-0.14-0.35-0.34V8.96H5.37v1.97
			c0,0.2-0.14,0.34-0.35,0.34c-0.22,0-0.35-0.14-0.35-0.34V6.5c0-0.2,0.13-0.35,0.35-0.35c0.21,0,0.35,0.14,0.35,0.35v1.84h3.28V6.5
			c0-0.2,0.14-0.35,0.35-0.35C9.22,6.16,9.35,6.3,9.35,6.5z"/>
		<path class="st8" d="M10.57,6.16c0-0.24,0.18-0.4,0.44-0.4c0.27,0,0.45,0.16,0.45,0.4s-0.18,0.4-0.45,0.4
			C10.75,6.56,10.57,6.39,10.57,6.16z M11.36,7.69v3.25c0,0.2-0.14,0.34-0.35,0.34c-0.21,0-0.34-0.13-0.34-0.34V7.69
			c0-0.2,0.14-0.34,0.34-0.34C11.22,7.35,11.36,7.48,11.36,7.69z"/>
	</g>
	<g>
	</g>
	<g>
	</g>
	<g>
	</g>
	<g>
	</g>
	<g>
	</g>
	<g>
	</g>
	<g>
	</g>
	<g>
	</g>
	<g>
	</g>
	<g>
	</g>
	<g>
	</g>
	<g>
	</g>
	<g>
	</g>
	<g>
	</g>
	<g>
	</g>
</g>
</svg>
